<svg width="48" height="48" viewBox="0 0 48 48" fill="none" xmlns="http://www.w3.org/2000/svg">
<path d="M40.9943 35.1772L15.8621 37.0774L7.08692 32.279L7.06445 12.874L28.9713 10.9316L40.9012 15.4237L40.9943 35.1772Z" fill="#DAAE87"/>
<path d="M28.953 10.918L41.0086 15.4106L15.8625 17.2315L7.07034 12.874L28.953 10.918Z" fill="#E8BD97"/>
<path d="M15.8681 17.2328V37.0841L7.06641 32.2864V12.8555L15.8681 17.2328Z" fill="#C49972"/>
<path d="M8.28516 28.0664V31.7225L12.2994 33.8843V30.0665L8.28516 28.0664Z" fill="#DAAE87"/>
<path d="M16.0234 12.073L26.0736 16.506L31.6297 16.1611L20.5477 11.6719L16.0234 12.073Z" fill="#F5D0B0"/>
<path d="M22.6032 21.4568L24.5109 24.5354L24.5785 24.5319L26.4947 21.257L28.2839 21.1651L25.6148 25.6392L28.3262 29.8371L26.5073 29.9305L24.5785 26.8741L24.5109 26.8776L22.582 30.1321L20.7717 30.225L23.5084 25.7474L20.8055 21.5491L22.6032 21.4568ZM34.2237 23.2446C34.1842 22.8767 34.0178 22.5972 33.7245 22.4062C33.4341 22.215 33.0562 22.1313 32.5909 22.1552C32.2638 22.172 31.9833 22.2358 31.7492 22.3467C31.5152 22.4575 31.3361 22.6008 31.212 22.7766C31.0879 22.9524 31.0245 23.1491 31.0217 23.3667C31.0217 23.5474 31.0626 23.702 31.1443 23.8305C31.2289 23.9589 31.3431 24.0659 31.487 24.1517C31.6308 24.2347 31.7901 24.3028 31.9649 24.3559C32.1398 24.409 32.316 24.4522 32.4937 24.4855L33.3058 24.6471C33.6329 24.7065 33.9473 24.7934 34.249 24.9078C34.5536 25.022 34.8257 25.1718 35.0654 25.3572C35.3079 25.5424 35.4997 25.7711 35.6407 26.0434C35.7817 26.3157 35.8522 26.6397 35.8522 27.0152C35.8522 27.5234 35.7225 27.9777 35.463 28.3778C35.2036 28.7751 34.8285 29.0951 34.3379 29.3377C33.85 29.5774 33.2593 29.715 32.5656 29.7506C31.8916 29.7853 31.3065 29.7108 30.8102 29.5274C30.3167 29.3438 29.9304 29.0587 29.6512 28.672C29.3748 28.2853 29.2254 27.8045 29.2028 27.2296L30.7467 27.1503C30.7693 27.4513 30.8623 27.6978 31.0259 27.8899C31.1895 28.082 31.4024 28.2207 31.6646 28.306C31.9297 28.3913 32.2258 28.4255 32.5529 28.4087C32.8941 28.3911 33.193 28.325 33.4496 28.2101C33.709 28.0923 33.9121 27.9379 34.0587 27.7468C34.2053 27.553 34.2801 27.3317 34.2829 27.0831C34.2801 26.8573 34.2138 26.6744 34.0841 26.5342C33.9544 26.3912 33.7725 26.2763 33.5384 26.1895C33.3072 26.0997 33.0365 26.0233 32.7263 25.9602L31.7407 25.7566C31.0273 25.6097 30.4633 25.3606 30.0488 25.0091C29.6371 24.6548 29.4312 24.167 29.4312 23.5458C29.4312 23.0347 29.5694 22.58 29.8458 22.1818C30.1249 21.7835 30.5042 21.4661 30.9836 21.2297C31.463 20.9905 32.0058 20.8553 32.6121 20.8242C33.2268 20.7926 33.7654 20.8723 34.2279 21.0631C34.6932 21.251 35.0584 21.5273 35.3234 21.8921C35.5885 22.254 35.7253 22.679 35.7337 23.167L34.2237 23.2446Z" fill="#5F4F40"/>
<path d="M17.8203 33.2403V35.0047L39.9333 33.2405V31.545L17.8203 33.2403Z" fill="#5F4F40"/>
</svg>
