<svg width="48" height="48" viewBox="0 0 48 48" fill="none" xmlns="http://www.w3.org/2000/svg">
<g clip-path="url(#clip0_13756_30367)">
<path d="M48.0185 39.8047L12.4796 42.4917L0.0708312 35.7064L0.0390625 8.26617L31.017 5.51953L47.8868 11.8716L48.0185 39.8047Z" fill="#DAAE87"/>
<path d="M30.9907 5.5L48.0382 11.853L12.4797 14.4278L0.0469101 8.26595L30.9907 5.5Z" fill="#E8BD97"/>
<path d="M12.4873 14.4281V42.4995L0.0410156 35.7152V8.23828L12.4873 14.4281Z" fill="#C49972"/>
<path d="M1.76562 29.75V34.9201L7.44202 37.977V32.5783L1.76562 29.75Z" fill="#DAAE87"/>
<path d="M12.709 7.1336L26.9208 13.4022L34.7774 12.9145L19.1066 6.56641L12.709 7.1336Z" fill="#F5D0B0"/>
<path d="M23.9826 20.331L26.6982 20.1916L30.3348 28.8928L30.4784 28.8855L34.115 19.8107L36.8306 19.6712V31.9372L34.7012 32.0465V23.6197L34.5876 23.6255L31.2021 32.1903L29.6111 32.272L26.2256 24.037L26.112 24.0428V32.4876L23.9826 32.597V20.331Z" fill="#5F4F40"/>
<path d="M15.25 37.0654V39.5604L46.5196 37.0656V34.6681L15.25 37.0654Z" fill="#5F4F40"/>
</g>
<defs>
<clipPath id="clip0_13756_30367">
<rect width="48" height="48" fill="white" transform="translate(-0.0078125)"/>
</clipPath>
</defs>
</svg>
