<svg width="48" height="48" viewBox="0 0 48 48" fill="none" xmlns="http://www.w3.org/2000/svg">
<path d="M43.9926 37.1516L14.4188 39.3876L4.09284 33.7412L4.06641 10.9067L29.8448 8.62109L43.8831 13.907L43.9926 37.1516Z" fill="#DAAE87"/>
<path d="M29.8242 8.60547L44.0104 13.8921L14.4202 16.0347L4.07425 10.9072L29.8242 8.60547Z" fill="#E8BD97"/>
<path d="M14.4256 16.0357V39.3953L4.06836 33.7498V10.8848L14.4256 16.0357Z" fill="#C49972"/>
<path d="M5.50195 28.7852V33.0874L10.2256 35.6312V31.1387L5.50195 28.7852Z" fill="#DAAE87"/>
<path d="M14.6094 9.96614L26.4357 15.1826L32.9737 14.7767L19.9332 9.49414L14.6094 9.96614Z" fill="#F5D0B0"/>
<path d="M31.3311 23.2294C31.2847 22.7966 31.0889 22.4677 30.7438 22.2429C30.402 22.0179 29.9573 21.9194 29.4098 21.9475C29.0249 21.9673 28.6947 22.0424 28.4193 22.1728C28.1439 22.3033 27.9332 22.4719 27.7872 22.6788C27.6412 22.8856 27.5665 23.1171 27.5632 23.3731C27.5632 23.5857 27.6113 23.7677 27.7076 23.9189C27.8071 24.07 27.9415 24.196 28.1107 24.2969C28.28 24.3945 28.4674 24.4746 28.6732 24.5372C28.8789 24.5997 29.0863 24.6505 29.2954 24.6896L30.251 24.8798C30.6359 24.9497 31.0059 25.052 31.361 25.1866C31.7193 25.321 32.0396 25.4973 32.3216 25.7154C32.607 25.9333 32.8326 26.2025 32.9985 26.5229C33.1645 26.8433 33.2474 27.2245 33.2474 27.6664C33.2474 28.2645 33.0948 28.799 32.7895 29.2699C32.4842 29.7374 32.0429 30.1139 31.4655 30.3994C30.8914 30.6814 30.1963 30.8434 29.38 30.8853C28.5869 30.926 27.8984 30.8385 27.3143 30.6226C26.7337 30.4065 26.279 30.071 25.9505 29.6161C25.6253 29.161 25.4495 28.5952 25.4229 27.9187L27.2397 27.8254C27.2662 28.1796 27.3757 28.4697 27.5682 28.6957C27.7607 28.9217 28.0112 29.085 28.3198 29.1854C28.6317 29.2857 28.9801 29.3259 29.365 29.3062C29.7665 29.2856 30.1183 29.2077 30.4202 29.0726C30.7255 28.9339 30.9644 28.7522 31.137 28.5274C31.3095 28.2992 31.3975 28.0389 31.4008 27.7463C31.3975 27.4807 31.3195 27.2654 31.1669 27.1004C31.0142 26.9322 30.8002 26.797 30.5248 26.6948C30.2527 26.5892 29.9341 26.4992 29.5691 26.4249L28.4094 26.1854C27.5699 26.0126 26.9062 25.7194 26.4184 25.3059C25.9339 24.8888 25.6917 24.3148 25.6917 23.5838C25.6917 22.9824 25.8543 22.4474 26.1795 21.9789C26.508 21.5101 26.9543 21.1367 27.5184 20.8585C28.0825 20.577 28.7213 20.4179 29.4347 20.3813C30.1581 20.3441 30.7919 20.4379 31.3361 20.6624C31.8836 20.8835 32.3133 21.2087 32.6252 21.6379C32.9372 22.0638 33.0981 22.5639 33.108 23.1382L31.3311 23.2294Z" fill="#5F4F40"/>
<path d="M16.7246 34.872V36.9482L42.7457 34.8722V32.877L16.7246 34.872Z" fill="#5F4F40"/>
</svg>
